# xmcd
#
# Track frame offsets: 
#        150
#        15083
#        33346
#        56029
#        71493
#        101427
#        117149
#        132427
#        149481
#        163185
#        177316
#        190288
#        201207
#        217629
#        230382
#        253680
#        271558
#        290280
#        306332
#        326661
#
# Disc length: 4608 seconds
#
# Revision: 0
# Processed by: cddbd v1.5.2PL0 Copyright (c) Steve Scherf et al.
# Submitted via: ExactAudioCopy v0.95b4
#
DISCID=1c11fe14
DTITLE=Asleep at the Wheel - The Best of Asleep at the Wheel on the Ro
DTITLE=ad [628261-269723]
DYEAR=2006
DGENRE=
TTITLE0=Get Your Kicks on Route 66
TTITLE1=Cherokee Maiden
TTITLE2=Choo Choo Ch'boogie
TTITLE3=Take Me Back to Tulsa
TTITLE4=Hot Rod Lincoln
TTITLE5=House of Blue Lights
TTITLE6=Miles and Miles of Texas
TTITLE7=Ain't Nobody Here But Us Chickens
TTITLE8=Ain't Misbehavin'
TTITLE9=Old Cowhand
TTITLE10=Don't Fence Me In
TTITLE11=Bob's Breakdown
TTITLE12=Texas Me and You
TTITLE13=You're from Texas
TTITLE14=Wonderful World
TTITLE15=The Letter (That Johnny Walker Read)
TTITLE16=Big Balls in Cowtown
TTITLE17=Goodbye Liza Jane
TTITLE18=Bump Bounce Boogie
TTITLE19=Cotton-Eyed Joe
EXTD=
EXTT0=
EXTT1=
EXTT2=
EXTT3=
EXTT4=
EXTT5=
EXTT6=
EXTT7=
EXTT8=
EXTT9=
EXTT10=
EXTT11=
EXTT12=
EXTT13=
EXTT14=
EXTT15=
EXTT16=
EXTT17=
EXTT18=
EXTT19=
PLAYORDER=
